<?xml version="1.0" encoding="utf-8"?>
<!-- Generator: Adobe Illustrator 19.2.0, SVG Export Plug-In . SVG Version: 6.00 Build 0)  -->
<svg version="1.1" id="Слой_1" xmlns="http://www.w3.org/2000/svg" xmlns:xlink="http://www.w3.org/1999/xlink" x="0px" y="0px"
	 viewBox="0 0 420.9 270" style="enable-background:new 0 0 420.9 270;" xml:space="preserve">
<style type="text/css">
	.st0{fill:none;stroke:#FFFFFF;stroke-width:9;stroke-linecap:round;stroke-linejoin:round;stroke-miterlimit:10;}
</style>
<g id="Layer_7">
	<path class="st0" d="M167.9,146.4l-0.1-24.2 M168.8,185.5c-1-3.6-0.8-6-0.8-10v-3.2 M242,75.6v99.9c0,22.4-16.6,40.7-37,40.7
		c-9.9,0-19-4.4-25.6-11.4"/>
	<path class="st0" d="M77.2,75.6v99.9c0,22.4-16.6,40.7-37,40.7c-9.9,0-19-4.4-25.6-11.4"/>
	<path class="st0" d="M302.3,229v-99.9"/>
	<path class="st0" d="M242,160.2c0-13.8,10-25,22.2-25s22.2,11.3,22.2,25v32.3"/>
	<path class="st0" d="M362,160.2c0-13.8,10-25,22.2-25s22.2,11.3,22.2,25v32.3"/>
	<path class="st0" d="M302.3,229.7c0,13.8-10,25-22.2,25s-22.2-11.3-22.2-25v-32.3"/>
	<path class="st0" d="M361.7,82.2V189c0,13.8-10,25-22.2,25H329"/>
	<path class="st0" d="M286.3,42v67.3c0,13.8-10,25-22.2,25c-12.2,0-22.2-11.3-22.2-25"/>
	<path class="st0" d="M286.3,109.4V42c0-13.8,10-25,22.2-25s22.2,11.3,22.2,25"/>
	<path class="st0" d="M406,42v67.3c0,13.8-10,25-22.2,25s-22.2-11.3-22.2-25"/>
	<line class="st0" x1="406" y1="109.4" x2="406" y2="42"/>
	<path class="st0" d="M370.3,50.9c0,12.2-11.3,22.2-25,22.2"/>
	<path class="st0" d="M361.7,42c0-13.8,10-25,22.2-25C396,17,406,28.3,406,42"/>
	<line class="st0" x1="121.8" y1="101.4" x2="121.8" y2="168.7"/>
	<line class="st0" x1="121.8" y1="168.7" x2="121.8" y2="101.4"/>
	<path class="st0" d="M77.5,100.7c0-13.8,10-25,22.2-25s22.2,11.3,22.2,25"/>
	<line class="st0" x1="361.7" y1="109.4" x2="361.7" y2="81.3"/>
</g>
<g id="Layer_9">
	<path class="st0" d="M227.3,188.4v-25.5c0,0-25.5-28.8-54.2-5.2"/>
	<path class="st0" d="M183.3,178.4"/>
	<path class="st0" d="M227.3,140.9V97.7c0-12.1-9.9-22-22-22s-22,9.9-22,22"/>
	<path class="st0" d="M166,98L166,98c0-12.1-9.9-22-22-22s-22,9.9-22,22"/>
	<path class="st0" d="M183.3,153.5v24.9c0,12.1-9.9,22-22,22s-22-9.9-22-22"/>
	<line class="st0" x1="183.3" y1="125" x2="183.3" y2="139"/>
	<line class="st0" x1="183.3" y1="97.7" x2="183.3" y2="110.5"/>
	<path class="st0" d="M173.4,157.4c-4.3,3.3-9.7,5.3-15.6,5.3c-14.1,0-25.5-11.4-25.5-25.5c0-10.1,5.8-18.8,14.3-22.9"/>
	<path class="st0" d="M146.7,114.3c0,0,33.8-21.1,80.7,27.2"/>
	<path class="st0" d="M302.3,230.9v-13.3c0-13.8,9.8-25,21.8-25h21.2"/>
	<path class="st0" d="M302.3,172.9v-13.3c0-13.7,9.8-25,21.8-25h21.2"/>
	<path class="st0" d="M302.3,111.4V98c0-13.8,9.8-25,21.8-25h21.2"/>
</g>
</svg>
